<?xml version="1.0" encoding="utf-8"?>
<!-- Generator: Adobe Illustrator 15.0.2, SVG Export Plug-In . SVG Version: 6.00 Build 0)  -->
<!DOCTYPE svg PUBLIC "-//W3C//DTD SVG 1.1//EN" "http://www.w3.org/Graphics/SVG/1.1/DTD/svg11.dtd">
<svg version="1.1" id="Layer_2" xmlns="http://www.w3.org/2000/svg" xmlns:xlink="http://www.w3.org/1999/xlink" x="0px" y="0px"
	 width="500px" height="500px" viewBox="0 0 500 500" enable-background="new 0 0 500 500" xml:space="preserve">
<g>
	<path fill="#636E75" d="M136.056,221.823L255.172,95.667L375.883,221.3l31.784-31.633l70.488,69.013
		c0.194-3.856,0.294-7.738,0.294-11.644c0-125.385-101.646-227.034-227.036-227.034c-125.387,0-227.035,101.648-227.035,227.034
		c0,6.591,0.297,13.11,0.848,19.56l78.441-76.929L136.056,221.823z"/>
	<polygon fill="#D0977F" points="375.883,221.3 255.172,95.667 136.056,221.823 255.852,340.76 	"/>
	<path fill="#DADAD9" d="M136.056,221.823l-32.389-32.156l-78.441,76.929c1.749,20.495,6.208,40.219,13.04,58.797
		c19.668,53.485,58.894,97.516,109.006,123.432l108.58-108.063L136.056,221.823z"/>
	<path fill="#BDBEBF" d="M407.667,189.667L375.883,221.3L255.852,340.76l-108.58,108.063
		c31.193,16.132,66.601,25.251,104.142,25.251c39.941,0,77.466-10.327,110.071-28.438c49.913-27.724,88.271-73.709,106.06-128.937
		c5.936-18.428,9.594-37.874,10.611-58.021L407.667,189.667z"/>
</g>
</svg>
