<?xml version="1.0" encoding="utf-8"?>
<!-- Generator: Adobe Illustrator 15.0.2, SVG Export Plug-In . SVG Version: 6.00 Build 0)  -->
<!DOCTYPE svg PUBLIC "-//W3C//DTD SVG 1.1//EN" "http://www.w3.org/Graphics/SVG/1.1/DTD/svg11.dtd">
<svg version="1.1" id="Layer_2" xmlns="http://www.w3.org/2000/svg" xmlns:xlink="http://www.w3.org/1999/xlink" x="0px" y="0px"
	 width="500px" height="500px" viewBox="0 0 500 500" enable-background="new 0 0 500 500" xml:space="preserve">
<path fill="#D05928" d="M485.246,249.998c0-62.835-24.47-121.91-68.902-166.342S312.836,14.753,249.999,14.753
	c-62.836,0-121.912,24.47-166.344,68.902S14.753,187.163,14.753,249.998c0,4.933,0.165,9.972,0.489,15.04l-0.053,0.052l0.441,5.162
	c0.635,7.445,1.628,14.839,2.96,22.159l0.019,0.14l0.005-0.005c2.405,13.176,5.922,26.107,10.532,38.644
	c18.625,50.648,53.819,92.981,99.9,120.604l-0.358,0.356l13.379,6.919c0.006,0.003,0.011,0.006,0.017,0.009l7.126,3.686l0.116-0.116
	c31.258,14.798,65.885,22.6,100.672,22.6c39.908,0,79.351-10.191,114.061-29.472c52.508-29.165,91.532-76.61,109.886-133.596
	c3.872-12.024,6.761-24.345,8.649-36.827l0.002,0.002l0.005-0.046c1.163-7.7,1.946-15.462,2.34-23.255l0.249-4.948l-0.06-0.059
	C485.2,254.695,485.246,252.341,485.246,249.998z M249.999,36.753c112.583,0,205.068,87.695,212.733,198.362l-58.462-57.238
	l-31.155,31.007L253.643,84.54L135.805,209.342l-31.689-31.461l-67.275,65.976C40.101,129.1,134.468,36.753,249.999,36.753z
	 M357.519,224.407l-38.085,37.904l-65.06,64.749L151.422,224.847l102.359-108.409L357.519,224.407z M49.794,323.597
	c-5.922-16.106-9.867-32.939-11.747-50.109l65.973-64.7l32.292,32.061l0,0L238.78,342.58l-93.606,93.161
	C101.029,410.807,67.32,371.256,49.794,323.597z M453.004,315.435c-16.636,51.652-52.017,94.663-99.627,121.107
	c-31.45,17.47-67.198,26.704-103.378,26.704c-29.33,0-57.52-5.771-84.013-17.18l8.952-8.909l229.459-228.367l58.269,57.049
	C461.425,282.699,458.182,299.358,453.004,315.435z"/>
<path id="path3" display="none" opacity="0.5" fill="#E5E5E5" d="M248.42,15.295c-130.096,0-235.93,105.837-235.93,235.935
	c0,130.102,105.847,235.946,235.937,235.946c130.105,0,235.949-105.845,235.949-235.946
	C484.366,121.132,378.527,15.295,248.42,15.295z M248.42,35.779c115.472,0,209.98,91.302,215.208,205.497l-61.319-61.31
	l-32.993,32.993L252.07,86.396L135.997,211.354l-31.914-31.914l-71.089,71.09C33.378,132.049,129.856,35.779,248.42,35.779z
	 M354.824,227.452L253.455,328.823L150.491,225.851l101.56-109.334L354.824,227.452z M34.677,277.81l69.406-69.402l134.886,134.908
	l-95.811,95.801C84.81,406.302,43.243,347.104,34.677,277.81z M248.42,466.685c-30.535,0-59.585-6.423-85.928-17.919
	l239.816-239.827l60.732,60.729C453.645,379.869,361.014,466.685,248.42,466.685z"/>
</svg>
